Coordinates
version=1
nRows=12
nColumns=24
inDegrees=yes

Units are S.I. units (second, meters, Newtons, ...)
Angles are in degrees.

endheader
time	pelvis_tilt	pelvis_list	pelvis_rotation	pelvis_tx	pelvis_ty	pelvis_tz	hip_flexion_r	hip_adduction_r	hip_rotation_r	knee_angle_r	ankle_angle_r	subtalar_angle_r	mtp_angle_r	hip_flexion_l	hip_adduction_l	hip_rotation_l	knee_angle_l	ankle_angle_l	subtalar_angle_l	mtp_angle_l	lumbar_extension	lumbar_bending	lumbar_rotation
      0.81683333	      3.45260857	      0.21650073	      0.14631248	     -0.38238894	      1.02504634	      0.30903978	      4.99351694	      4.19438380	      4.06396086	    -14.81836633	      5.04483029	    -16.97573543	      6.68803259	      9.95338770	     -1.60513167	     -5.48020370	    -66.95541214	      2.83997072	    -14.35836538	     -0.04052710	     -5.66615873	     -0.32796634	      2.32087519
      0.82100000	      3.45397137	      0.33891797	     -0.08638146	     -0.37717702	      1.02579902	      0.30944374	      4.51382910	      4.05125743	      4.17021064	    -14.49500897	      5.15682604	    -16.76288779	      6.74552455	     10.48689923	     -1.48478797	     -5.67453495	    -66.68525002	      3.13963401	    -13.85108777	     -0.06614410	     -5.69973528	     -0.47002515	      2.67631914
      0.82516667	      3.46055667	      0.48122471	     -0.32592415	     -0.37197506	      1.02653706	      0.30983813	      4.03248583	      3.88127210	      4.27339908	    -14.17192081	      5.21829041	    -16.55672728	      6.78176791	     11.00022699	     -1.34497109	     -5.88063863	    -66.35314146	      3.39387689	    -13.33280960	     -0.06843789	     -5.73104693	     -0.64377601	      2.92777607
      0.82933333	      3.47764915	      0.56879156	     -0.54731421	     -0.36680666	      1.02719152	      0.31022057	      3.53491810	      3.77081631	      4.38125412	    -13.83992963	      5.37624175	    -16.33926726	      6.84013903	     11.50874447	     -1.27500270	     -6.06097408	    -66.01877204	      3.71682999	    -12.72411676	     -0.06268508	     -5.80309902	     -0.74928697	      3.34355273
      0.83350000	      3.47075933	      0.69301186	     -0.78250170	     -0.36161480	      1.02781495	      0.31060127	      3.07172889	      3.61447540	      4.47611263	    -13.51764144	      5.43845957	    -16.14217725	      6.87979873	     12.01905012	     -1.16663885	     -6.26509472	    -65.60081501	      3.95394918	    -12.16115846	     -0.04896946	     -5.81433022	     -0.89958340	      3.61283227
      0.83766667	      3.49996856	      0.77723157	     -1.00718757	     -0.35645140	      1.02840815	      0.31096025	      2.56141534	      3.49957311	      4.57696486	    -13.18118555	      5.60253924	    -15.92930282	      6.95272051	     12.48948549	     -1.10728764	     -6.45204101	    -65.17217170	      4.25711134	    -11.54110267	     -0.01790813	     -5.88195435	     -0.98860415	      4.06453269
      0.84183333	      3.50684631	      0.86662969	     -1.22638806	     -0.35129524	      1.02892887	      0.31130284	      2.07964771	      3.37568097	      4.67501344	    -12.84819216	      5.70874671	    -15.73638025	      7.02464150	     12.97447863	     -1.04394473	     -6.63651869	    -64.69422620	      4.50824791	    -10.94693999	      0.02317607	     -5.92194307	     -1.09237021	      4.40129238
      0.84600000	      3.50638253	      0.95928080	     -1.44932180	     -0.34614562	      1.02939975	      0.31164080	      1.61449015	      3.24580975	      4.76755880	    -12.53078122	      5.82090012	    -15.54817714	      7.09090658	     13.45293218	     -0.97955700	     -6.82348186	    -64.16745743	      4.74916302	    -10.34899857	      0.07052650	     -5.94887805	     -1.19406656	      4.71575347
      0.85016667	      3.51406436	      1.03793271	     -1.66469375	     -0.34101164	      1.02982344	      0.31196506	      1.13793695	      3.12827063	      4.85671167	    -12.20530810	      5.93104137	    -15.36232312	      7.15803270	     13.91584066	     -0.93486032	     -7.00624032	    -63.60921843	      4.97929584	     -9.76546482	      0.12580684	     -5.98918355	     -1.28646102	      5.03189526
      0.85433333	      3.51042029	      1.11947274	     -1.87728011	     -0.33587987	      1.03019447	      0.31227810	      0.67791465	      3.00515175	      4.94179393	    -11.88685685	      6.03573244	    -15.18048395	      7.22090683	     14.37690796	     -0.88871123	     -7.18649837	    -63.00390134	      5.18677462	     -9.20839191	      0.18425127	     -6.01620509	     -1.38200041	      5.32943511
      0.85850000	      3.52660775	      1.17388071	     -2.07513973	     -0.33078020	      1.03052068	      0.31257308	      0.18942257	      2.91016995	      5.02896115	    -11.55194521	      6.16006526	    -15.00113846	      7.29306485	     14.81436870	     -0.87600688	     -7.35640392	    -62.38082979	      5.39992637	     -8.67147706	      0.25676571	     -6.07964776	     -1.45769127	      5.65566003
      0.86266667	      3.52637169	      1.25052714	     -2.27707008	     -0.32566678	      1.03082446	      0.31284952	     -0.26916330	      2.78649921	      5.10621553	    -11.23975838	      6.23923052	    -14.83698883	      7.34422399	     15.24438444	     -0.83348398	     -7.52480029	    -61.68541271	      5.55736432	     -8.18601471	      0.31327243	     -6.10472353	     -1.54557754	      5.89049217
